# xmcd
#
# Track frame offsets:
# 150
# 14597
# 28985
# 43795
# 57795
# 69612
# 85950
# 99382
# 115502
# 128092
# 140205
# 155205
# 170450
# 184657
# 202820
# 220832
# 236045
# 251382
# 266445
# 280912
#
# Disc length: 3907 seconds
#
# Revision: 0
# Processed by: cddbd v1.5.1PL0 Copyright (c) Steve Scherf et al.
# Submitted via: Audion 3.0.2 (http://www.panic.com/audion/)
#
DISCID=240f4114
DTITLE=Reijo Taipale - Suuret sävelet cd 1
DYEAR=1900
DGENRE=
TTITLE0=Satumaa
TTITLE1=Yön tummat siivet
TTITLE2=Kertokaa hänelle miksi
TTITLE3=Jos Jätät Minut
TTITLE4=Humiko
TTITLE5=Eilinen Tango
TTITLE6=Vaaralliset Huulet
TTITLE7=Aila
TTITLE8=Etelän kutsu
TTITLE9=Satu Ruskeista Silmistä
TTITLE10=Saapuuko Hän
TTITLE11=Joka ilta
TTITLE12=Unikuva
TTITLE13=Kulkijan Kyynel
TTITLE14=Viimeinen ruusu
TTITLE15=Olit Nousussa Auringon
TTITLE16=Sokea Rakkaus
TTITLE17=Kylmän kyyneleet
TTITLE18=Kukkani lumen alla
TTITLE19=Tallinnan laulu
EXTD=
EXTT0=
EXTT1=
EXTT2=
EXTT3=
EXTT4=
EXTT5=
EXTT6=
EXTT7=
EXTT8=
EXTT9=
EXTT10=
EXTT11=
EXTT12=
EXTT13=
EXTT14=
EXTT15=
EXTT16=
EXTT17=
EXTT18=
EXTT19=
PLAYORDER=
